<svg width="300" height="260" viewBox="0 0 300 260" fill="none" xmlns="http://www.w3.org/2000/svg">
<path d="M80 80V60H100V40H60V60H40V100H60V80H80Z" fill="#F6F6F6"/>
<path fill-rule="evenodd" clip-rule="evenodd" d="M40 20V40H20L20 120H40V140H60V160H80V180H100V200H120V220H140V240H160V220H180V200H200V180H220V160H240V140H260V120H280V40H260V20L180 20V40H160V60H140V40H120V20L40 20ZM60 40V60H40V100H60V80H80V60H100V40H60Z" fill="#FFF561"/>
<path fill-rule="evenodd" clip-rule="evenodd" d="M40 20H20L20 40H0V120H20V140H40V160H60V180H80V200H100V220H120V240H140V260H160V240H180V220H200V200H220V180H240V160H260V140H280V120H300V40H280V20L260 20V0H180V20H160V40H140V20H120V0H40V20ZM40 20L120 20V40H140V60H160V40H180V20H260V40H280V120H260V140H240V160H220V180H200V200H180V220H160V240H140V220H120V200H100V180H80V160H60V140H40V120H20V40H40V20Z" fill="#121212"/>
</svg>
