<svg width="520" height="640" viewBox="0 0 520 640" fill="none" xmlns="http://www.w3.org/2000/svg">
<path fill-rule="evenodd" clip-rule="evenodd" d="M380 20L400 20V40H420V60H440V600H20L20 60H60V20L80 20V40H100V60H140V20L160 20V40H180V60H220V20L240 20V40H260V60H300V20L320 20V40H340V60H380V20ZM400 120V140H340V120H400ZM320 120V140H300V120H320ZM220 140V120H60V140H220ZM220 160V180H60V160H220ZM400 400V420H60V400H400ZM400 380H60V360H400V380ZM400 340V320H60V340H400ZM400 300H60V280H400V300ZM220 260H60V240H220V260ZM220 500V520H60V500H220ZM220 540V560H60V540H220Z" fill="#F7F7F7"/>
<path d="M100 20V40H80V20H100Z" fill="#FFF561"/>
<path d="M100 40H140V60H100V40Z" fill="#FFF561"/>
<path d="M20 60V40H60V60H20Z" fill="#FFF561"/>
<path d="M180 40V20H160V40H180V60H220V40H180Z" fill="#FFF561"/>
<path d="M260 40H300V60H260V40Z" fill="#FFF561"/>
<path d="M260 40H240V20H260V40Z" fill="#FFF561"/>
<path d="M340 40V20H320V40H340V60H380V40H340Z" fill="#FFF561"/>
<path d="M420 40H460V600H440V60H420V40Z" fill="#FFF561"/>
<path d="M420 40H400V20H420V40Z" fill="#FFF561"/>
<path d="M440 600H40L40 620H440V600Z" fill="#FFF561"/>
<path d="M480 600H460V620H480V600Z" fill="#FFF561"/>
<path d="M480 600H500V40H480V600Z" fill="#FFF561"/>
<path d="M60 20V0H100V20H60Z" fill="#121212"/>
<path d="M20 40V20H60V40H20Z" fill="#121212"/>
<path d="M20 600H0V40H20L20 600Z" fill="#121212"/>
<path d="M40 620H20L20 600H40V620Z" fill="#121212"/>
<path fill-rule="evenodd" clip-rule="evenodd" d="M460 600H440V620H40L40 640H480V620H500V600H520V40H500V20H480V40H460V20H420V0H380V20H340V0H300V20H260V0H220V20H180V0H140V20H100V40H140V20H180V40H220V20H260V40H300V20H340V40H380V20H420V40H460V600ZM480 600V40H500V600H480ZM480 600H460V620H480V600Z" fill="#121212"/>
<path d="M60 120V140H220V120H60Z" fill="#121212"/>
<path d="M220 160V180H60V160H220Z" fill="#121212"/>
<path d="M60 240V260H220V240H60Z" fill="#121212"/>
<path d="M400 280V300H60V280H400Z" fill="#121212"/>
<path d="M60 320V340H400V320H60Z" fill="#121212"/>
<path d="M320 140V120H300V140H320Z" fill="#121212"/>
<path d="M340 120H400V140H340V120Z" fill="#121212"/>
<path d="M60 380H400V360H60V380Z" fill="#121212"/>
<path d="M60 420V400H400V420H60Z" fill="#121212"/>
<path d="M60 500V520H220V500H60Z" fill="#121212"/>
<path d="M60 540V560H220V540H60Z" fill="#121212"/>
</svg>
