<svg width="100" height="100" viewBox="0 0 100 100" fill="none" xmlns="http://www.w3.org/2000/svg">
<path d="M55.4668 42.3984C58.0808 47.9532 59.857 54.0399 62.4403 59.5103C64.4815 63.8329 67.1198 67.2643 67.9922 72.0626C69.2616 79.0443 47.9497 72.885 44.7383 72.8136C39.8637 72.7053 35.1236 71.848 30.2549 71.848C28.2812 71.848 27.9482 72.0625 27.9482 70.0778C27.9482 67.1001 27.9471 64.3158 28.6992 61.4146C29.5452 58.1517 31.1237 56.1426 32.7224 53.2878C34.1402 50.7561 36.1844 49.1471 37.8184 46.7703C39.0008 45.0504 41.1447 43.6853 42.6462 42.1838C43.5901 41.2399 44.8509 41.2129 45.7038 40.36C50.3219 35.742 55.3168 31.4565 59.0608 26.0107C62.069 21.6351 63.4169 16.3902 62.4671 11.0713C61.3191 4.6428 54.6318 4.43599 49.8879 2.3276C46.948 1.02097 42.8748 1.68885 40.876 4.25872C38.5724 7.22057 35.19 11.4249 35.19 15.3627C35.19 17.5003 36.5466 18.458 37.3625 20.271C38.2678 22.2828 40.153 23.3915 40.9833 25.2597C41.5587 26.5544 46.0231 27.9032 47.2595 28.3978" stroke="#F7F7F7" stroke-width="3" stroke-linecap="round"/>
<path d="M2.47973 98.1553C2.20559 95.1399 2.56523 92.4322 3.5903 89.5848C4.04234 88.3292 5.60823 87.2555 6.60791 86.4663C6.9842 86.1692 7.35238 85.9084 7.85309 86.0624C8.43825 86.2425 9.20624 86.6921 9.43482 87.274C9.87783 88.4016 10.5963 89.4153 10.9604 90.572C11.4391 92.0925 11.3643 93.9411 11.3643 95.5303" stroke="#F6F6F6" stroke-width="3" stroke-linecap="round"/>
<path d="M4.70068 92.0977C6.26706 92.0977 8.12963 92.2005 9.54681 91.4919" stroke="#F6F6F6" stroke-width="3" stroke-linecap="round"/>
<path d="M24.0853 87.8574C21.3827 87.8574 18.1531 87.4217 16.6254 90.1907C15.6815 91.9015 16.501 92.5247 17.8706 93.4663C20.0456 94.9616 23.1049 94.713 25.4988 93.915" stroke="#F6F6F6" stroke-width="3" stroke-linecap="round"/>
<path d="M36.2006 87.6554C34.4705 87.6554 32.5265 87.3921 31.3096 88.9566C27.6789 93.6247 38.7213 95.6834 41.8544 94.1169" stroke="#F6F6F6" stroke-width="3" stroke-linecap="round"/>
<path d="M49.1238 88.867C48.1472 89.8571 46.7274 90.9774 47.2616 92.5801C47.6219 93.6609 48.6909 94.3223 49.752 94.5095C51.8947 94.8877 54.0252 94.9651 55.3722 93.0288C57.7694 89.5827 52.1931 87.4473 49.5276 87.8573" stroke="#F6F6F6" stroke-width="3" stroke-linecap="round"/>
<path d="M63.4602 87.8573C62.7948 87.9405 62.4478 91.0347 62.3497 91.6041C62.0479 93.3544 63.0559 94.5711 64.6718 95.0255C66.4218 95.5177 68.5821 95.4677 69.6301 93.7579C70.6301 92.1262 71.739 90.6159 71.739 88.665" stroke="#F6F6F6" stroke-width="3" stroke-linecap="round"/>
<path d="M76.7871 96.7418C77.448 96.6684 77.6814 95.1633 77.7967 94.6778C78.141 93.228 78.6776 91.9201 79.3224 90.572C79.4562 90.2922 79.9418 88.8488 80.2198 88.7098C80.7332 88.4531 81.7978 90.7477 81.9361 91.088C82.3939 92.215 82.6548 93.2543 82.9569 94.4197C83.0666 94.8427 83.4062 96.8679 84.0563 96.8989C84.887 96.9385 86.3339 92.3582 86.5691 91.5031C86.8865 90.349 86.8832 89.244 86.8832 88.0592" stroke="#F6F6F6" stroke-width="3" stroke-linecap="round"/>
<path d="M91.5273 90.0785C93.7482 90.0785 95.791 90.6843 97.9888 90.6843" stroke="#F6F6F6" stroke-width="3" stroke-linecap="round"/>
<path d="M93.95 91.088C93.2068 92.6674 92.9404 95.2097 92.9404 96.9438" stroke="#F6F6F6" stroke-width="3" stroke-linecap="round"/>
</svg>
