<svg width="12" height="20" viewBox="0 0 12 20" fill="none" xmlns="http://www.w3.org/2000/svg">
<path d="M7.86274 10.9437C8.51463 12.3001 8.9576 13.7864 9.60183 15.1222C10.1109 16.1777 10.7688 17.0156 10.9864 18.1873C11.303 19.8921 5.9881 18.3881 5.18721 18.3707C3.97156 18.3442 2.78944 18.1349 1.57524 18.1349C1.08303 18.1349 1 18.1873 1 17.7027C1 16.9755 0.99971 16.2956 1.18729 15.5872C1.39825 14.7905 1.79192 14.2999 2.19061 13.6028C2.54418 12.9846 3.05397 12.5917 3.46149 12.0113C3.75637 11.5913 4.29102 11.258 4.66548 10.8913C4.90087 10.6609 5.21529 10.6543 5.428 10.446C6.57968 9.31832 7.82534 8.27186 8.75904 6.94208C9.50925 5.87362 9.84539 4.59288 9.60852 3.29409C9.32224 1.72434 7.65452 1.67384 6.47146 1.159C5.73829 0.83994 4.72249 1.00303 4.22401 1.63055C3.64951 2.3538 2.80598 3.38044 2.80598 4.34199C2.80598 4.86397 3.14432 5.09781 3.34778 5.54052C3.57356 6.03179 4.0437 6.30251 4.25077 6.7587C4.39427 7.07484 5.50763 7.40421 5.81596 7.52497" stroke="#F7F7F7" stroke-width="2" stroke-linecap="round"/>
</svg>
