<svg width="68" height="76" viewBox="0 0 68 76" fill="none" xmlns="http://www.w3.org/2000/svg">
<path d="M19.3372 14.0234C18.1435 14.0234 18.1704 14.4636 17.3919 15.2421C17.0809 15.5532 16.4414 15.9674 16.2201 16.3437C15.8949 16.8965 15.8202 17.6263 15.4232 18.1367C14.5255 19.2908 14.2737 21.3083 14.0755 22.6952C13.8243 24.4542 14.2169 26.2591 15.0013 27.828C16.2309 30.2873 18.6057 30.6874 21.1302 30.6874C21.5076 30.6874 22.0213 30.5954 22.3841 30.6991C22.5631 30.7502 21.6033 31.5854 21.4466 31.7421C20.7334 32.4553 20.3245 33.2861 19.6536 33.9569C19.1515 34.459 18.9027 35.1297 18.3997 35.6327C18.0909 35.9415 18.1271 36.3768 17.8372 36.6874C17.4667 37.0844 17.1605 37.3611 16.9115 37.8592C16.0999 39.4823 14.6966 41.4265 14.6966 43.2967C14.6966 44.7191 14.6489 44.8201 16.0677 44.8201C18.6448 44.8201 20.7473 43.1211 23.0872 42.078C24.9301 41.2564 26.1925 40 27.8216 38.9139C28.5421 38.4336 29.0339 37.6227 29.6731 37.0155C30.1762 36.5375 30.5633 35.9102 30.7161 35.2225C30.8125 34.7889 31.2968 32.8169 31.6653 32.6327C32.0823 32.4242 33.337 32.3877 33.7981 32.3749C34.9332 32.3433 36.1574 32.2894 37.2668 32.0467C40.5724 31.3237 44.0305 31.5047 47.3918 31.1093C51.7928 30.5915 55.8946 29.3607 59.5324 26.7265C62.3614 24.6779 63.7692 21.9117 64.7589 18.6171C65.5134 16.1056 66.2954 13.01 65.3683 10.414C64.3482 7.55782 60.2537 6.11035 57.9269 4.63671C54.6353 2.55199 49.8626 2 46.0676 2C39.9967 2 34.1968 2.08339 28.22 3.26562C26.5859 3.58884 25.067 4.0488 23.4857 4.53124C22.9238 4.70264 22.662 4.9529 22.2435 5.32811C21.8082 5.71833 21.1355 5.7095 20.72 6.12498C19.4135 7.43156 20.9408 8.24417 21.8685 9.17184C24.1748 11.4782 26.5394 13.5306 29.8841 13.9765C32.1637 14.2805 34.4996 14.4656 36.7981 14.4453C39.9261 14.4176 42.8588 13.2077 45.9035 12.664C47.9443 12.2996 49.8535 11.914 51.9269 11.914C52.7134 11.914 54.16 13.2114 53.884 14.0703C53.5248 15.1876 51.8541 16.7341 50.9074 17.3515C49.5169 18.2584 47.797 18.8351 46.2316 19.3906C42.0783 20.8643 37.3328 20.5833 33.0598 21.5234C31.5292 21.8601 29.641 22.1387 28.2083 22.7655C27.4281 23.1069 27.0594 24.1532 28.0325 24.5702C28.9441 24.9609 30.0376 25.203 31.0325 25.203C33.0578 25.203 35.0802 25.5323 37.1028 25.6132C40.854 25.7632 44.5045 25.203 48.2355 25.203" stroke="#F7F7F7" stroke-width="3" stroke-linecap="round"/>
<path d="M2.87892 55.5366C2.87892 60.5535 2.43946 65.5382 2.43946 70.5516C2.43946 71.0437 2.15469 73.2024 2.48829 73.5057C2.73188 73.7272 3.70562 73.5545 4.02641 73.5545C5.43079 73.5545 6.87559 73.6545 8.27454 73.5301C9.78811 73.3956 10.8888 72.7518 11.8635 71.6014C13.8795 69.2218 11.5368 65.4959 10.008 63.5446C8.88154 62.1069 7.50104 61.2496 5.66218 61.2496C3.86643 61.2496 9.33913 61.251 11.009 60.5904C12.4166 60.0336 12.8735 59.1408 13.4016 57.7828C14.0201 56.1923 12.9397 55.1435 11.6437 54.2549C9.03411 52.4654 4.88047 50.9795 2 52.8998" stroke="#F7F7F7" stroke-width="3" stroke-linecap="round"/>
<path d="M20.0181 58.6129C19.3244 61.0022 19.1795 63.625 18.9194 66.096C18.8198 67.0422 17.9834 68.9364 18.6386 69.8436C19.7846 71.4304 23.2544 72.6264 25.0963 72.4071C27.2813 72.147 29.2091 70.5749 31.2243 69.8192" stroke="#F7F7F7" stroke-width="3" stroke-linecap="round"/>
<path d="M36.9371 60.3707C35.9008 63.3739 34.0649 67.2398 37.1568 69.636C39.2145 71.2308 41.2085 69.9022 42.7233 68.3299C43.6283 67.3905 45.7114 63.3223 43.9684 62.4093C42.0117 61.3844 38.7642 60.2442 36.522 60.4684C35.2355 60.597 34.901 62.055 34.52 63.0075" stroke="#F7F7F7" stroke-width="3" stroke-linecap="round"/>
<path d="M54.2961 59.9313C51.2921 60.0011 49.1576 63.0609 48.8516 65.9373C48.3736 70.4307 52.5836 74.1594 56.9084 74.1161C58.8113 74.0971 60.4065 72.5701 61.5716 71.223C61.7651 70.9993 63.8251 68.9969 63.2562 68.7693C60.2038 67.5484 56.5997 68.0689 53.4172 68.281" stroke="#F7F7F7" stroke-width="3" stroke-linecap="round"/>
</svg>
