<svg width="26" height="22" viewBox="0 0 26 22" fill="none" xmlns="http://www.w3.org/2000/svg">
<path d="M3.47331 6.61576C2.92015 6.61576 2.9326 6.82139 2.57184 7.185C2.4277 7.33029 2.13137 7.52375 2.02879 7.69951C1.87809 7.95772 1.84347 8.29856 1.65951 8.53695C1.24351 9.07603 1.12682 10.0183 1.035 10.6661C0.91856 11.4877 1.1005 12.3307 1.46402 13.0635C2.03383 14.2121 3.1343 14.399 4.30418 14.399C4.47909 14.399 4.71713 14.3561 4.88525 14.4045C4.96821 14.4284 4.52343 14.8184 4.45081 14.8916C4.12029 15.2248 3.93081 15.6128 3.61994 15.9261C3.38724 16.1606 3.27193 16.4739 3.03887 16.7088C2.89575 16.8531 2.91254 17.0564 2.7782 17.2014C2.60648 17.3869 2.46462 17.5161 2.34919 17.7488C1.97311 18.5069 1.32282 19.4149 1.32282 20.2885C1.32282 20.9528 1.30069 21 1.95819 21C3.15243 21 4.12674 20.2064 5.21108 19.7192C6.06509 19.3355 6.65009 18.7486 7.40502 18.2414C7.7389 18.017 7.96682 17.6383 8.26304 17.3547C8.49618 17.1315 8.67555 16.8384 8.74636 16.5172C8.79102 16.3147 9.01547 15.3937 9.18623 15.3076C9.37946 15.2102 9.96093 15.1932 10.1746 15.1872C10.7006 15.1725 11.2679 15.1473 11.782 15.0339C13.3138 14.6962 14.9164 14.7808 16.474 14.5961C18.5135 14.3542 20.4143 13.7794 22.1 12.549C23.411 11.5922 24.0634 10.3002 24.5221 8.76136C24.8717 7.58829 25.2341 6.14245 24.8045 4.92994C24.3317 3.59589 22.4343 2.91982 21.3561 2.23153C19.8307 1.25782 17.619 1 15.8604 1C13.0471 1 10.3594 1.03895 7.58966 1.59113C6.83242 1.7421 6.12852 1.95693 5.39572 2.18227C5.13537 2.26232 5.01402 2.37921 4.82009 2.55446C4.61839 2.73672 4.30665 2.7326 4.11412 2.92666C3.50864 3.53692 4.21642 3.91646 4.64631 4.34975C5.71507 5.42696 6.81084 6.38558 8.36079 6.59387C9.41718 6.73583 10.4997 6.82231 11.5648 6.81281C13.0144 6.79988 14.3734 6.23479 15.7843 5.98084C16.7301 5.81063 17.6148 5.63054 18.5756 5.63054C18.9401 5.63054 19.6105 6.23652 19.4825 6.63766C19.3161 7.15952 18.5419 7.88186 18.1032 8.17022C17.4588 8.5938 16.6618 8.86317 15.9364 9.12261C14.0117 9.81096 11.8126 9.6797 9.83247 10.1188C9.12317 10.2761 8.24817 10.4062 7.58423 10.699C7.22269 10.8584 7.05181 11.3471 7.50277 11.5419C7.9252 11.7243 8.43196 11.8374 8.89299 11.8374C9.83155 11.8374 10.7687 11.9912 11.706 12.029C13.4443 12.0991 15.136 11.8374 16.865 11.8374" stroke="#F7F7F7" stroke-width="2" stroke-linecap="round"/>
</svg>
