<svg width="96" height="87" viewBox="0 0 96 87" fill="none" xmlns="http://www.w3.org/2000/svg">
<path d="M18.6718 6.26698C18.0604 11.0149 16.4853 16.5853 17.5261 21.399C17.8089 22.7073 17.5319 24.681 19.0274 25.3894C19.6143 25.6674 20.6996 25.6004 21.3584 25.745C24.3578 26.4034 27.6352 26.2023 30.6826 26.1796C33.0395 26.162 35.3576 25.824 37.7152 25.824C38.3466 25.824 39.6226 26.0635 40.1845 25.6265C41.1794 24.8527 41.3926 23.3519 41.6069 22.2089C42.1234 19.4541 42.4958 16.738 42.4958 13.9318C42.4958 11.1993 43.2551 7.78789 41.4291 5.73361C40.8563 5.08927 40.2012 5.27076 39.4339 5.18048C36.9083 4.88336 34.433 4.59156 31.9666 3.93595C27.4278 2.72942 23.3558 2 18.6718 2" stroke="#F7F7F7" stroke-width="3" stroke-linecap="round"/>
<path d="M78.4098 7.33374C73.6789 7.33374 69 8.0449 64.2656 8.0449C63.7991 8.0449 56.1378 7.58719 56.0279 8.30171C55.4259 12.2145 55.5399 16.3584 55.1192 20.3125C55.0636 20.8352 53.6479 26.48 54.5858 26.5352C56.9144 26.6721 59.2582 27.6189 61.6185 27.8785C66.1559 28.3776 70.4521 29.3798 75.0516 29.3798C75.5706 29.3798 79.7073 29.721 79.8124 29.1428C80.7346 24.0706 78.8838 19.5417 77.6987 14.801" stroke="#F7F7F7" stroke-width="3" stroke-linecap="round"/>
<path d="M15.1162 61.0266C15.281 58.0605 17.1738 55.6438 17.2497 52.5322C17.2975 50.574 17.6053 48.6508 17.6053 46.6848C17.6053 46.1998 17.4815 45.4817 17.6843 45.0254C18.1292 44.0245 19.0824 44.1587 20.0944 43.9587C23.2302 43.3388 26.3388 42.4866 29.537 42.2598C30.7861 42.1712 40.8712 41.7803 41.0737 43.6031C41.2222 44.94 40.4916 46.2992 40.165 47.554C39.5522 49.9084 39.4596 52.1494 39.2168 54.5471C39.0517 56.1772 38.3182 57.6448 38.229 59.2487C38.155 60.5819 34.2994 59.9663 33.6065 59.8809C29.9493 59.43 26.1836 58.7598 22.5834 59.9599" stroke="#F7F7F7" stroke-width="3" stroke-linecap="round"/>
<path d="M69.8757 62.8045C66.3915 62.8045 63.0793 61.7378 59.5836 61.7378C58.8886 61.7378 54.9722 62.243 54.9413 61.2242C54.8323 57.6273 54.8596 53.6984 55.4944 50.1616C55.7256 48.8737 55.9597 47.6746 56.008 46.3687C56.0455 45.3581 57.4145 45.7366 58.1415 45.7366C62.185 45.7366 66.156 45.7377 70.1721 46.0724C71.8645 46.2134 73.6144 46.8033 75.2885 46.8033C77.4175 46.8033 76.3336 52.3342 76.2565 53.9545C76.1644 55.8872 74.3179 58.3572 75.9206 59.9599" stroke="#F7F7F7" stroke-width="3" stroke-linecap="round"/>
<path d="M7.5093 68.6443C5.93464 68.7217 3.06301 69.6452 2.38297 71.3453C1.8813 72.5994 1.83436 75.6659 2.47117 76.8905C3.20862 78.3087 5.02852 79.2122 6.53916 79.4041C7.246 79.4938 11.3169 80.0793 11.6765 79.36" stroke="#F7F7F7" stroke-width="3" stroke-linecap="round"/>
<path d="M17.4312 79.5584C15.3121 79.2935 18.3749 73.2192 20.0109 72.8556C21.5048 72.5236 23.4277 73.736 24.0458 75.0605C24.4341 75.8925 24.1907 77.1269 23.9796 77.9709" stroke="#F7F7F7" stroke-width="3" stroke-linecap="round"/>
<path d="M19.2173 76.3834C20.875 76.3834 22.5195 76.5819 24.1782 76.5819" stroke="#F7F7F7" stroke-width="3" stroke-linecap="round"/>
<path d="M26.3608 70.8271C29.6189 70.8271 32.8533 71.6588 36.0843 72.0178" stroke="#F7F7F7" stroke-width="3" stroke-linecap="round"/>
<path d="M30.5281 72.2162C30.3126 74.3441 30.325 76.4992 29.7344 78.5662" stroke="#F7F7F7" stroke-width="3" stroke-linecap="round"/>
<path d="M41.4424 73.2084C40.5453 74.2052 39.9935 75.4879 39.1714 76.5488C38.7271 77.122 37.9759 77.7154 38.0689 78.5221C38.182 79.5022 43.0645 79.9143 44.0221 80.1537" stroke="#F7F7F7" stroke-width="3" stroke-linecap="round"/>
<path d="M40.0532 75.3912C41.2582 75.3912 42.4278 75.7881 43.6251 75.7881" stroke="#F7F7F7" stroke-width="3" stroke-linecap="round"/>
<path d="M41.2437 71.4224C42.6801 71.9868 44.4765 72.1459 45.8077 72.8115" stroke="#F7F7F7" stroke-width="3" stroke-linecap="round"/>
<path d="M54.142 73.2084C52.0044 73.2084 50.6231 73.5523 49.0819 75.0935C48.3771 75.7983 48.0126 76.6924 48.233 77.7063C48.5429 79.1321 50.3367 79.6589 51.4741 80.264C53.0929 81.125 56.779 82.4658 58.0667 80.3963C58.4791 79.7334 58.6635 79.024 58.0998 78.3898C56.9909 77.1423 55.4214 77.4509 53.9436 77.574" stroke="#F7F7F7" stroke-width="3" stroke-linecap="round"/>
<path d="M63.0721 75.3912C61.7528 77.0703 60.9265 80.3399 63.0059 81.6751C65.0163 82.966 68.506 83.2019 69.4662 80.3853C70.5014 77.3487 65.4215 74.6293 63.2705 76.7803" stroke="#F7F7F7" stroke-width="3" stroke-linecap="round"/>
<path d="M74.3828 74.399C74.5194 76.4177 74.8509 78.4798 74.7356 80.5065C74.6828 81.4346 74.4049 82.3815 74.4049 83.3067C74.4049 84.0225 74.5813 83.4312 74.5813 83.0752C74.5813 81.606 74.7607 80.1921 74.9781 78.7426C75.1672 77.4821 75.0455 74.6497 76.1798 73.7045C76.7661 73.2158 78.6832 75.5427 78.9028 76.0306C79.3503 77.0251 78.7115 77.9296 77.8665 78.5442C77.1529 79.0632 75.9593 78.6301 75.3089 78.1693C74.9822 77.9379 75.6123 77.9688 75.7278 78.015C76.7049 78.4058 77.7415 79.5546 78.5169 80.2419C80.1529 81.6919 81.7592 83.2055 83.511 84.5194" stroke="#F7F7F7" stroke-width="3" stroke-linecap="round"/>
<path d="M85.6938 72.4146C86.7884 72.8707 87.1618 74.4451 87.8656 75.2809C88.4516 75.9768 88.4497 77.0396 89.2216 77.574C90.7167 78.6091 93.505 74.5074 94.2267 73.6052" stroke="#F7F7F7" stroke-width="3" stroke-linecap="round"/>
<path d="M88.2737 77.574C88.2737 79.8937 88.0309 82.2803 88.6706 84.5194" stroke="#F7F7F7" stroke-width="3" stroke-linecap="round"/>
</svg>
