<svg width="25" height="23" viewBox="0 0 25 23" fill="none" xmlns="http://www.w3.org/2000/svg">
<path d="M2.22791 2.47368C2.01672 4.11347 1.47274 6.03731 1.8322 7.69981C1.9299 8.15166 1.83423 8.83332 2.35072 9.07797C2.55342 9.17399 2.92823 9.15083 3.15579 9.20078C4.19167 9.42817 5.32359 9.35873 6.37606 9.35088C7.19007 9.3448 7.99065 9.22807 8.80491 9.22807C9.02297 9.22807 9.46367 9.31078 9.65774 9.15985C10.0013 8.8926 10.0749 8.37429 10.149 7.97953C10.3274 7.02811 10.456 6.09003 10.456 5.12086C10.456 4.17716 10.7182 2.99896 10.0876 2.28947C9.88975 2.06694 9.66349 2.12962 9.39848 2.09844C8.52622 1.99582 7.67133 1.89504 6.81953 1.66862C5.25195 1.25192 3.84561 1 2.22791 1" stroke="#F7F7F7" stroke-width="2" stroke-linecap="round"/>
<path d="M22.8597 2.84204C21.2257 2.84204 19.6098 3.08766 17.9747 3.08766C17.8135 3.08766 15.1676 2.92957 15.1296 3.17635C14.9217 4.5277 14.9611 5.95887 14.8158 7.3245C14.7966 7.50504 14.3076 9.45457 14.6316 9.47362C15.4358 9.52093 16.2453 9.84789 17.0604 9.93756C18.6275 10.1099 20.1113 10.4561 21.6998 10.4561C21.8791 10.4561 23.3078 10.5739 23.3441 10.3742C23.6626 8.62243 23.0234 7.05829 22.614 5.42099" stroke="#F7F7F7" stroke-width="2" stroke-linecap="round"/>
<path d="M1 21.3861C1.05691 20.3617 1.71063 19.527 1.73684 18.4524C1.75334 17.7761 1.85965 17.1119 1.85965 16.4329C1.85965 16.2654 1.8169 16.0174 1.88694 15.8598C2.04058 15.5141 2.36979 15.5604 2.7193 15.4914C3.80232 15.2773 4.87594 14.9829 5.98051 14.9046C6.41191 14.874 9.89496 14.739 9.96491 15.3685C10.0162 15.8303 9.76387 16.2997 9.65107 16.7331C9.43943 17.5462 9.40745 18.3202 9.32359 19.1483C9.26658 19.7113 9.01323 20.2181 8.98246 20.7721C8.95688 21.2325 7.62528 21.0199 7.38597 20.9904C6.12288 20.8347 4.82235 20.6032 3.57895 21.0177" stroke="#F7F7F7" stroke-width="2" stroke-linecap="round"/>
<path d="M19.9122 22C18.7088 22 17.5649 21.6316 16.3576 21.6316C16.1176 21.6316 14.765 21.8061 14.7543 21.4542C14.7167 20.2119 14.7261 18.855 14.9453 17.6335C15.0252 17.1887 15.106 16.7746 15.1227 16.3236C15.1356 15.9746 15.6085 16.1053 15.8596 16.1053C17.256 16.1053 18.6275 16.1057 20.0145 16.2213C20.5991 16.27 21.2034 16.4737 21.7816 16.4737C22.5169 16.4737 22.1425 18.3839 22.1159 18.9435C22.0841 19.611 21.4464 20.464 21.9999 21.0176" stroke="#F7F7F7" stroke-width="2" stroke-linecap="round"/>
</svg>
