<svg width="32" height="33" viewBox="0 0 32 33" fill="none" xmlns="http://www.w3.org/2000/svg">
<path d="M1 15.2964C2.85575 15.1522 4.09783 13.096 4.9616 12.2031C6.49953 10.6133 8.58187 9.08381 9.77593 7.35815C10.8966 5.73857 12.2041 4.64213 13.6132 3.20888C14.3599 2.44935 15.7451 1.84843 16.349 1.1094C17.1847 0.0866466 23.6985 6.55702 24.1834 7.12211C25.7674 8.96831 27.3949 10.6308 28.5358 12.6255C28.6342 12.7976 30.5279 14.5559 30.2413 14.6132C28.287 15.0036 26.1467 14.9075 24.1656 15.1846C21.254 15.5918 18.0421 15.473 15.0877 15.7312C13.2278 15.8938 10.8341 15.65 9.15415 16.3027C8.07739 16.721 8.03496 16.3578 8.03496 17.4332C8.03496 18.3988 7.85143 19.4951 7.69742 20.4644C7.42335 22.1893 6.4361 23.8391 6.4361 25.5826C6.4361 26.4464 5.65373 30.1496 7.07564 30.676C8.09106 31.052 10.299 28.7846 11.055 28.3405C12.8187 27.3045 14.7043 26.3999 16.5266 25.4087C17.5125 24.8725 18.5252 24.1186 19.4756 23.5204C20.3782 22.9524 20.6463 22.0379 21.4653 21.4334C22.2936 20.8219 22.5528 19.9711 23.384 19.3215C23.8487 18.9582 23.656 18.8984 23.7215 19.4705C23.8251 20.3763 24.3194 21.2125 24.3433 22.129C24.3999 24.3087 23.384 26.3217 23.384 28.4896C23.384 29.2001 23.5461 29.7386 23.9524 30.3779C24.4897 31.2231 22.5211 30.9493 21.8917 30.9493C20.0423 30.9493 18.2405 30.7547 16.4201 30.7257C15.0661 30.7042 14.0615 31.1099 12.8315 31.3966" stroke="#F7F7F7" stroke-width="2" stroke-linecap="round"/>
</svg>
