<svg width="63" height="80" viewBox="0 0 63 80" fill="none" xmlns="http://www.w3.org/2000/svg">
<path d="M3.10303 70.0275C5.79064 70.0275 8.4608 70.1752 11.1395 70.3426" stroke="#F7F7F7" stroke-width="3" stroke-linecap="round"/>
<path d="M52.5825 69.8699C54.3015 69.8699 56.0681 70.0422 57.7826 70.185" stroke="#F7F7F7" stroke-width="3" stroke-linecap="round"/>
<path d="M3.18408 27.3978C6.48086 27.1417 8.68743 23.4888 10.2219 21.9025C12.9541 19.0782 16.6534 16.361 18.7747 13.2954C20.7655 10.4182 23.0884 8.4703 25.5916 5.92412C26.9182 4.5748 29.379 3.50726 30.4518 2.19436C31.9365 0.377413 43.5084 11.8721 44.3697 12.876C47.1838 16.1558 50.075 19.1093 52.1019 22.6529C52.2768 22.9586 55.6409 26.0823 55.1317 26.184C51.6598 26.8777 47.8577 26.707 44.3382 27.1992C39.1656 27.9226 33.4597 27.7115 28.2111 28.1703C24.907 28.4591 20.6546 28.026 17.6701 29.1855C15.7572 29.9286 15.6818 29.2834 15.6818 31.1938C15.6818 32.9093 15.3558 34.8568 15.0822 36.5788C14.5953 39.6431 12.8414 42.574 12.8414 45.6714C12.8414 47.2059 11.4515 53.7848 13.9776 54.72C15.7815 55.3878 19.7039 51.3598 21.047 50.5709C24.1802 48.7304 27.53 47.1233 30.7674 45.3625C32.5187 44.4099 34.3179 43.0705 36.0064 42.0079C37.6097 40.9988 38.0861 39.3742 39.5411 38.3002C41.0126 37.214 41.473 35.7024 42.9495 34.5484C43.7751 33.9031 43.4329 33.7968 43.5492 34.8132C43.7333 36.4224 44.6114 37.9078 44.6538 39.5361C44.7545 43.4083 42.9495 46.9844 42.9495 50.8357C42.9495 52.098 43.2376 53.0545 43.9595 54.1903C44.9138 55.6919 41.4168 55.2055 40.2985 55.2055C37.0131 55.2055 33.8122 54.8596 30.5781 54.8082C28.1727 54.77 26.388 55.4907 24.203 56" stroke="#F7F7F7" stroke-width="3" stroke-linecap="round"/>
<path d="M2.47273 63.094C2.39662 67.5088 2 71.9169 2 76.3305" stroke="#F7F7F7" stroke-width="3" stroke-linecap="round"/>
<path d="M11.2971 65.4578C11.2032 67.8067 10.9449 70.0586 10.5442 72.3737C10.354 73.4727 10.292 74.6675 9.87891 75.7003" stroke="#F7F7F7" stroke-width="3" stroke-linecap="round"/>
<path d="M19.8062 68.4517C19.3471 69.2973 18.6881 69.9342 18.5806 70.9379C18.4308 72.3361 18.8836 73.8047 19.99 74.6848C21.8217 76.1418 26.1296 76.9274 26.8096 73.7218C27.143 72.15 26.5787 69.6816 25.0237 68.8894C23.209 67.9649 21.026 68.3933 19.3334 69.2396" stroke="#F7F7F7" stroke-width="3" stroke-linecap="round"/>
<path d="M32.7279 77.2761C32.3246 77.1416 32.3081 76.1845 32.2552 75.8579C32.0752 74.7462 32.1142 73.7113 32.3427 72.61C32.7196 70.7943 33.3693 68.1691 35.2317 67.2961C37.1344 66.4042 38.6665 70.1484 38.8384 71.6383C38.9249 72.3875 38.6437 74.2109 38.4357 72.3912C38.2336 70.6227 38.9168 68.8937 40.3792 67.8302C41.2368 67.2065 43.0954 66.2272 43.9072 67.445C44.8763 68.8987 45.063 70.5614 45.3341 72.2336C45.4674 73.0556 45.4042 75.8929 46.2796 76.3306" stroke="#F7F7F7" stroke-width="3" stroke-linecap="round"/>
<path d="M51.9521 66.8759C51.9521 68.4892 51.8963 70.1137 51.9608 71.7257C52.0256 73.3459 51.9296 75.4629 53.1601 76.6807C54.6769 78.1817 56.7796 77.9773 58.7629 78.0551C59.6694 78.0907 60.448 77.8341 61.2491 77.4336" stroke="#F7F7F7" stroke-width="3" stroke-linecap="round"/>
<path d="M51.9521 64.985C54.5901 65.4329 57.1583 65.4577 59.831 65.4577" stroke="#F7F7F7" stroke-width="3" stroke-linecap="round"/>
</svg>
