<svg width="29" height="20" viewBox="0 0 29 20" fill="none" xmlns="http://www.w3.org/2000/svg">
<path d="M6.11505 5.12215C6.89703 5.12215 8.21955 4.97501 8.90645 5.36948C9.91267 5.94734 11.28 6.11147 12.4156 6.11147C13.0839 6.11147 14.4564 6.36947 14.9678 5.94658C15.855 5.21289 16.1641 3.52227 16.1641 2.40153C16.1641 1.75538 15.7321 1.65954 15.1716 1.65954C13.853 1.65954 12.6271 1.58772 11.3168 1.42138C9.58448 1.20146 7.7869 1.42865 6.07074 1.15573C5.40398 1.04969 4.74912 1 4.04144 1C3.20018 1 2.83459 2.4039 2.77423 3.15268C2.57132 5.66965 1.84269 8.07041 1.49816 10.5634C1.19157 12.7819 1.01077 15.1227 1.01077 17.3604C1.01077 18.5423 0.81147 18.9726 2.12733 18.9726C4.9417 18.9726 7.77561 19.0883 10.5813 18.8443C12.0351 18.7179 13.4364 18.313 14.8969 18.313C16.2468 18.313 17.5967 18.313 18.9466 18.313C20.9434 18.313 22.9402 18.313 24.9371 18.313C25.3233 18.313 26.6883 18.5532 26.9221 18.139C27.4897 17.1331 27.4892 15.5819 27.4892 14.4657C27.4892 12.4071 27.4007 10.2836 27.9323 8.29163C28.1905 7.32406 27.6783 7.43056 26.9398 7.43056C25.7311 7.43056 24.4715 7.53779 23.2711 7.39392C21.3955 7.16913 19.4888 7.26567 17.5997 7.26567" stroke="#F7F7F7" stroke-width="2" stroke-linecap="round"/>
</svg>
