<svg width="92" height="68" viewBox="0 0 92 68" fill="none" xmlns="http://www.w3.org/2000/svg">
<path d="M30.2301 10.0153C31.7941 10.0153 34.4391 9.72918 35.8129 10.4962C37.8253 11.6198 40.56 11.939 42.8313 11.939C44.1678 11.939 46.9128 12.4406 47.9355 11.6184C49.71 10.1917 50.3282 6.90442 50.3282 4.7252C50.3282 3.4688 49.4641 3.28245 48.3432 3.28245C45.7059 3.28245 43.2543 3.14279 40.6336 2.81934C37.169 2.39173 33.5738 2.83349 30.1415 2.3028C28.808 2.09662 27.4982 2 26.0829 2C24.4004 2 23.6692 4.7298 23.5485 6.18576C23.1426 11.0799 21.6854 15.748 20.9963 20.5955C20.3831 24.9092 20.0215 29.4609 20.0215 33.8118C20.0215 36.11 19.6229 36.9467 22.2547 36.9467C27.8834 36.9467 33.5512 37.1717 39.1626 36.6973C42.0703 36.4515 44.8727 35.6642 47.7938 35.6642C50.4936 35.6642 53.1934 35.6642 55.8933 35.6642C59.8869 35.6642 63.8805 35.6642 67.8741 35.6642C68.6466 35.6642 71.3767 36.1311 71.8441 35.3258C72.9794 33.3698 72.9784 30.3536 72.9784 28.1833C72.9784 24.1804 72.8014 20.0515 73.8645 16.1782C74.381 14.2968 73.3565 14.5039 71.8796 14.5039C69.4622 14.5039 66.9431 14.7124 64.5422 14.4326C60.7911 13.9955 56.9776 14.1832 53.1993 14.1832" stroke="#F7F7F7" stroke-width="3" stroke-linecap="round"/>
<path d="M4.84376 48.8901C3.89047 52.1313 4.12669 56.0398 4.06819 59.4034C4.06507 59.5825 4.15836 60.9452 3.80966 60.0928C2.69115 57.3586 2.51705 54.7227 2.51705 51.8057C2.51705 50.2316 2.61725 47.9012 4.38416 47.3964C5.52392 47.0708 8.14619 47.1037 9.15248 47.5257C10.1377 47.9388 13.1165 48.8806 13.1165 50.2258C13.1165 51.9494 12.8281 52.4938 11.4217 53.6297C9.40039 55.2623 4.21098 55.1286 2 53.802" stroke="#F7F7F7" stroke-width="3" stroke-linecap="round"/>
<path d="M19.838 51.4753C19.27 51.6173 19.0624 57.446 19.0624 58.24C19.0624 59.3006 18.8639 60.2782 18.8039 61.2992C18.8002 61.3613 17.8167 59.442 17.6836 58.9582C16.8157 55.8023 17.474 51.4666 19.0049 48.6316C19.9706 46.8434 23.1075 46.8607 24.8935 47.1379C26.4496 47.3793 29.4867 49.183 28.4841 51.1881C28.0106 52.1352 25.893 52.6416 25.0084 53.0839C23.9586 53.6089 23.2135 53.9026 22.0067 53.7877C21.344 53.7246 19.359 53.5435 20.0247 53.5435C20.9219 53.5435 21.9479 53.8582 22.5955 54.4914C25.4009 57.2344 26.6193 61.1966 29.1448 64.143" stroke="#F7F7F7" stroke-width="3" stroke-linecap="round"/>
<path d="M34.5738 53.5435C31.9923 55.8903 31.2007 58.8096 34.2866 61.2704C35.7166 62.4108 38.3 62.958 39.3709 61.0981C40.4558 59.2137 42.4383 55.2133 39.6725 53.9169C35.4682 51.9461 32.6356 53.0255 29.9204 56.6457" stroke="#F7F7F7" stroke-width="3" stroke-linecap="round"/>
<path d="M43.6221 66.2112C45.1744 66.2112 46.6663 66.4697 48.218 66.4697C49.1272 66.4697 49.3689 66.2795 49.7117 65.4069C50.3368 63.8158 51.5038 62.5198 52.0959 60.8971C52.6183 59.4654 52.6704 57.693 52.6704 56.1862C52.6704 55.4718 52.9776 53.9656 52.4119 53.3999C51.618 52.6061 48.4123 53.4168 47.2414 53.0265" stroke="#F7F7F7" stroke-width="3" stroke-linecap="round"/>
<path d="M61.2016 55.0946C61.2016 57.9134 59.6792 60.3222 59.6792 63.0945C59.6792 64.4035 61.0994 64.8366 62.1208 65.177C62.6274 65.3459 64.7626 65.4355 63.2698 65.4355" stroke="#F7F7F7" stroke-width="3" stroke-linecap="round"/>
<path d="M60.9434 58.714H63.2701" stroke="#F7F7F7" stroke-width="3" stroke-linecap="round"/>
<path d="M60.168 54.3191C61.1952 54.3191 62.8931 53.9815 63.7873 54.5776" stroke="#F7F7F7" stroke-width="3" stroke-linecap="round"/>
<path d="M73.8694 55.8702C71.1568 55.8702 69.6015 58.0748 70.0203 60.7965C70.2352 62.1937 72.1395 62.8078 73.2949 63.1663C75.1137 63.7308 77.0082 63.0585 78.7813 62.5919" stroke="#F7F7F7" stroke-width="3" stroke-linecap="round"/>
<path d="M80.0739 53.285C77.6958 53.285 84.8979 53.0675 87.1977 53.6727C88.8284 54.1019 91.2999 53.1755 89.1222 55.3531" stroke="#F7F7F7" stroke-width="3" stroke-linecap="round"/>
<path d="M83.4351 54.0605C84.7136 54.2026 86.2788 63.0713 86.2788 64.4015" stroke="#F7F7F7" stroke-width="3" stroke-linecap="round"/>
</svg>
