<svg width="28" height="20" viewBox="0 0 28 20" fill="none" xmlns="http://www.w3.org/2000/svg">
<path d="M6.73641 1C6.69199 1.13186 6.54152 1.17101 6.44133 1.25693C6.05605 1.5873 5.74553 2.08002 5.48526 2.50653C5.07083 3.18567 4.68402 3.82242 4.1987 4.46268C4.00485 4.71841 3.99861 5.00935 3.88001 5.29769C3.70903 5.71336 3.43153 6.062 3.21902 6.45386C2.74999 7.31873 2.49069 8.30875 2.12722 9.22167C1.48602 10.8321 1 12.45 1 14.1967C1 16.2281 1.79481 17.524 3.60853 18.4477C6.32588 19.8315 11.6156 18.5483 12.101 15.0901C12.2458 14.0589 12.4884 12.888 11.9358 11.9311C11.4685 11.1219 10.7101 10.5222 9.86428 10.1443C8.81885 9.67713 7.34207 9.13809 6.20526 9.70049C5.19299 10.2013 4.48773 10.8051 3.80919 11.6683C3.58497 11.9536 3.18929 12.8381 3.52591 13.1106C3.81333 13.3433 4.42857 13.2464 4.52919 12.9588C4.98807 11.6472 7.07555 11.4566 8.17641 10.9267C9.31667 10.3779 10.5474 10.0593 11.7174 9.56619C12.4892 9.24093 13.1601 8.81116 13.9128 8.46257C14.683 8.10587 15.3822 7.56474 16.1732 7.26552C16.7037 7.06481 17.012 6.60586 17.4066 6.20861C18.0605 5.55024 18.6579 4.83941 19.3069 4.17655C19.7617 3.71213 20.3386 3.1461 20.6525 2.5766C20.7971 2.31424 20.9283 2.21152 20.7587 2.5766C20.114 3.96499 19.4651 5.41479 18.9469 6.85677C18.6296 7.73971 18.5728 8.684 18.2564 9.56619C18.0215 10.2213 17.8443 10.8829 17.7843 11.5807C17.6106 13.5999 17.1579 16.3443 18.9056 17.9163C19.4857 18.4381 19.9654 18.9558 20.7941 18.9732C21.4801 18.9877 22.293 19.0769 22.9424 18.8214C23.8291 18.4724 24.5197 17.7904 25.244 17.2098C26.9662 15.8294 28.0301 12.9829 25.4801 11.8727C24.3903 11.3983 22.7258 10.9712 21.526 11.3822C20.8435 11.6159 19.719 13.1924 21.0774 13.1924" stroke="#F7F7F7" stroke-width="2" stroke-linecap="round"/>
</svg>
