<svg width="80" height="71" viewBox="0 0 80 71" fill="none" xmlns="http://www.w3.org/2000/svg">
<path d="M29.576 2C29.4786 2.29301 29.1487 2.38003 28.9291 2.57095C28.0844 3.30511 27.4037 4.40004 26.8331 5.34784C25.9245 6.85705 25.0765 8.27205 24.0125 9.69484C23.5876 10.2631 23.5739 10.9097 23.3139 11.5504C22.939 12.4741 22.3307 13.2489 21.8648 14.1197C20.8365 16.0416 20.2681 18.2417 19.4712 20.2704C18.0655 23.8491 17 27.4445 17 31.326C17 35.8403 18.7425 38.7201 22.7187 40.7726C28.676 43.8479 40.2726 40.9961 41.3368 33.3114C41.6542 31.0198 42.1861 28.4177 40.9746 26.2913C39.9501 24.4932 38.2875 23.1604 36.4332 22.3206C34.1413 21.2825 30.9038 20.0847 28.4115 21.3344C26.1923 22.4473 24.6462 23.7892 23.1586 25.7074C22.667 26.3412 21.7996 28.3069 22.5376 28.9125C23.1677 29.4295 24.5165 29.2142 24.7371 28.5751C25.7431 25.6603 30.3195 25.2369 32.7329 24.0594C35.2327 22.8397 37.9308 22.1317 40.4958 21.036C42.1879 20.3132 43.6588 19.3581 45.3089 18.5835C46.9973 17.7908 48.5302 16.5883 50.2642 15.9234C51.4273 15.4773 52.1033 14.4575 52.9683 13.5747C54.4019 12.1116 55.7116 10.532 57.1344 9.05901C58.1313 8.02695 59.3961 6.76911 60.0843 5.50355C60.4014 4.92054 60.6889 4.69226 60.3172 5.50355C58.9038 8.58887 57.4812 11.8106 56.3452 15.015C55.6496 16.9771 55.525 19.0755 54.8314 21.036C54.3164 22.4917 53.928 23.9619 53.7964 25.5127C53.4156 29.9997 52.4231 36.0984 56.2546 39.5918C57.5264 40.7514 58.578 41.9017 60.3949 41.9405C61.8987 41.9726 63.6809 42.1709 65.1044 41.6031C67.0485 40.8276 68.5623 39.3119 70.1503 38.0217C73.9258 34.9541 76.2584 28.6286 70.6678 26.1615C68.2787 25.1073 64.6297 24.1583 61.9992 25.0715C60.503 25.591 58.0377 29.0941 61.0159 29.0941" stroke="#F7F7F7" stroke-width="3" stroke-linecap="round"/>
<path d="M2.62006 53.9604C0.955528 57.983 2.83347 61.8133 5.97817 64.5088C9.0687 67.1578 15.0635 65.7496 17.3826 62.7573C20.8779 58.2472 14.9879 54.5141 11.0746 53.3283C8.35151 52.5031 5.49434 53.3381 3.09415 54.6715" stroke="#F7F7F7" stroke-width="3" stroke-linecap="round"/>
<path d="M10.9165 60.1235C13.7082 62.0121 15.7143 65.2484 18.7389 66.7607" stroke="#F7F7F7" stroke-width="3" stroke-linecap="round"/>
<path d="M23.7167 55.3827C23.0137 57.9881 22.3343 61.477 23.7694 63.9557C24.3745 65.0008 25.7646 67.1146 27.2855 66.7344C28.5951 66.407 28.9635 63.0846 29.4584 61.9935C30.3951 59.9286 31.3021 57.6838 31.3021 55.3827" stroke="#F7F7F7" stroke-width="3" stroke-linecap="round"/>
<path d="M40.0727 57.7531C38.962 59.3337 38.0895 61.5355 39.2825 63.3631C40.5639 65.3261 42.4566 67.2461 45.0111 66.8397C47.1495 66.4995 48.6934 63.2479 48.3165 61.2692C48.0702 59.9761 46.9635 58.6603 45.8144 58.0428C44.429 57.2984 42.7519 57.6099 41.3237 58.0165C40.6972 58.1949 40.0723 58.4027 39.4933 58.7013C34.8906 61.0749 40.8185 58.2012 37.9393 60.3606" stroke="#F7F7F7" stroke-width="3" stroke-linecap="round"/>
<path d="M52.3989 56.8049C56.8938 57.1795 61.3857 57.5161 65.9104 57.5161" stroke="#F7F7F7" stroke-width="3" stroke-linecap="round"/>
<path d="M57.3769 58.4642C57.3769 62.0371 56.9028 65.581 56.9028 69.1312" stroke="#F7F7F7" stroke-width="3" stroke-linecap="round"/>
<path d="M71.5995 59.1754C71.5995 60.4641 71.8176 61.7337 71.8366 63.0207C71.8528 64.1262 71.2271 65.4369 71.4152 66.471C71.636 67.6859 73.0372 67.2869 73.8909 67.5772C74.9483 67.9367 75.9351 68.183 77.0515 68.183" stroke="#F7F7F7" stroke-width="3" stroke-linecap="round"/>
<path d="M71.8364 61.7828C73.3013 61.7828 75.4969 61.3611 76.8143 62.0199" stroke="#F7F7F7" stroke-width="3" stroke-linecap="round"/>
<path d="M72.0737 57.5161H77.9998" stroke="#F7F7F7" stroke-width="3" stroke-linecap="round"/>
</svg>
