<svg width="36" height="60" viewBox="0 0 36 60" fill="none" xmlns="http://www.w3.org/2000/svg">
    <path d="M20 4V0H32V4H36V12H32V8H26H24V16H28V12L32 12.005V18V20H28V28H26H24V36H20V44H16V48H12V52H8V56H4V60H0V48V36H4V40H8V44H12V40H16V32H20V26V24H24V20H20V16H16V20H12V12H16V8V4H20Z" fill="#121212"/>
    <rect x="4" y="28" width="4" height="8" fill="#121212"/>
    <rect x="8" y="20" width="4" height="8" fill="#121212"/>
    <path d="M24 8H32V12H28V16H24V12V8Z" fill="white"/>
    <path d="M12 20H16V16H20V20H24V24H20V32H16V40H12V44H8V40H4V36H8V28H12V24V20Z" fill="white"/>
    <rect x="4" y="36.0001" width="4" height="4" fill="#FFF561"/>
    <rect x="8" y="39.9999" width="4" height="4" fill="#FFF561"/>
    <rect x="8" y="32.0001" width="4" height="4" fill="#FFF561"/>
    <rect x="12" y="27.9999" width="4" height="4" fill="#FFF561"/>
    <rect x="16" y="23.9999" width="4" height="4" fill="#FFF561"/>
    <rect x="12" y="20.0001" width="4" height="4" fill="#FFF561"/>
    <rect x="16" y="16" width="4" height="4" fill="#FFF561"/>
</svg>
