<svg width="1102" height="1433" viewBox="0 0 1102 1433" fill="none" xmlns="http://www.w3.org/2000/svg">
<path d="M1044.17 835.637C1013.09 863.287 927.33 831.193 879.092 799.592L878.824 799.345C869.177 793.667 837.018 792.927 837.018 792.927L800.839 747.747L779.668 721.331V689.731L779.132 720.591L779.668 721.331V1320.51C779.668 1368.4 737.594 1406.92 685.872 1406.92C636.829 1406.92 597.167 1372.85 592.611 1328.9C592.343 1326.19 592.075 1323.22 592.075 1320.51L589.663 782.311C579.48 822.799 539.013 851.684 492.383 848.968C444.949 846.253 408.234 811.689 405.018 769.226H401.534C400.998 773.423 399.658 777.373 398.318 781.323C397.247 783.792 396.175 786.508 394.835 788.979C392.691 793.917 389.475 798.607 385.991 803.049C384.383 805.271 382.775 807.246 380.631 809.221C376.879 813.418 372.591 817.121 368.036 820.33C366.16 821.812 364.016 823.046 362.14 824.527C354.636 829.218 346.06 833.168 336.952 835.39C327.304 838.355 316.852 839.587 305.865 839.093H304.793C303.453 839.093 301.845 839.093 300.773 838.846C299.165 838.599 298.093 838.599 296.485 838.352C290.321 837.612 284.426 836.131 278.798 834.402C273.17 832.427 267.81 830.205 262.718 827.49C260.038 826.008 257.627 824.525 255.215 823.043C250.391 819.836 246.103 816.378 242.083 812.428C239.939 810.453 238.063 808.478 236.455 806.502C228.952 797.862 223.321 787.986 219.837 777.371C219.301 775.889 219.033 774.408 218.765 772.927C218.229 771.692 217.961 770.458 217.961 769.224C217.693 768.483 217.693 767.989 217.425 767.249C217.425 767.989 217.693 768.483 217.693 769.224H212.602C201.882 807.737 163.023 835.141 118.269 833.412C76.1948 831.684 41.8921 804.774 31.7085 769.224C29.5645 762.064 28.4926 754.905 28.4926 747.251C28.4926 747.251 28.2568 590.398 28.4926 467.289C20.2921 252.597 227.609 19.4489 469.604 19.4489C666.576 59.1965 894.368 59.4434 917.147 558.635C1059.45 732.194 1080.08 803.545 1044.17 835.637Z" fill="#F9F9F9"/>
<path fill-rule="evenodd" clip-rule="evenodd" d="M469.763 49.2533C240.046 49.2533 53.8232 219.665 53.8232 429.878V746.91C53.8232 760.51 41.7744 771.536 26.9116 771.536C12.0487 771.536 0 760.51 0 746.91V429.878C0 192.463 210.32 0 469.763 0C729.207 0 939.526 192.463 939.526 429.878C939.526 443.479 927.478 454.505 912.615 454.505C897.752 454.505 885.703 443.479 885.703 429.878C885.703 219.665 699.481 49.2533 469.763 49.2533Z" fill="black"/>
<path fill-rule="evenodd" clip-rule="evenodd" d="M27.8999 719.691C42.6305 720.277 54.0706 732.05 53.452 745.989C51.9057 780.832 80.506 810.265 117.336 811.728C154.161 813.192 185.267 786.128 186.811 751.282C187.429 737.343 199.872 726.518 214.602 727.103C229.333 727.687 240.774 739.46 240.156 753.399C237.376 816.121 181.385 864.838 115.095 862.204C48.8104 859.57 -2.67594 806.595 0.107765 743.869C0.726339 729.931 13.1693 719.106 27.8999 719.691Z" fill="black"/>
<path fill-rule="evenodd" clip-rule="evenodd" d="M218.629 726.174C233.359 726.759 244.8 738.533 244.181 752.471C242.635 787.314 271.235 816.747 308.065 818.211C344.89 819.674 375.996 792.611 377.54 757.764C378.158 743.826 390.601 733 405.331 733.585C420.062 734.169 431.503 745.943 430.885 759.881C428.105 822.603 372.114 871.32 305.824 868.686C239.54 866.052 188.053 813.077 190.837 750.351C191.455 736.413 203.898 725.588 218.629 726.174Z" fill="black"/>
<path fill-rule="evenodd" clip-rule="evenodd" d="M219.898 726.232C234.607 727.324 245.572 739.221 244.389 752.804C241.43 786.762 268.842 816.505 305.616 819.236C342.389 821.968 374.597 796.655 377.555 762.697C378.738 749.114 391.622 738.988 406.331 740.081C421.04 741.174 432.005 753.071 430.821 766.654C425.497 827.778 367.522 873.342 301.331 868.424C235.139 863.507 185.798 809.971 191.122 748.847C192.306 735.264 205.189 725.139 219.898 726.232Z" fill="black"/>
<path fill-rule="evenodd" clip-rule="evenodd" d="M403.853 732.685C419.006 733.565 430.502 745.413 429.53 759.147C427.101 793.481 455.841 823.1 493.722 825.301C531.604 827.503 564.283 801.454 566.712 767.121C567.684 753.387 580.755 742.967 595.908 743.848C611.061 744.729 622.557 756.576 621.585 770.31C617.213 832.112 558.39 878.999 490.203 875.036C422.016 871.073 370.284 817.758 374.657 755.957C375.629 742.224 388.7 731.804 403.853 732.685Z" fill="black"/>
<path fill-rule="evenodd" clip-rule="evenodd" d="M1028.88 700.619C1039.73 691.21 1057.02 691.48 1067.5 701.222C1114.66 745.06 1113.3 814.921 1064.48 857.262C1015.65 899.603 937.839 898.389 890.68 854.55C880.2 844.809 880.501 829.284 891.351 819.875C902.202 810.466 919.493 810.736 929.973 820.477C956.172 844.832 999.4 845.507 1026.53 821.984C1053.65 798.461 1054.4 759.65 1028.2 735.295C1017.72 725.553 1018.02 710.028 1028.88 700.619Z" fill="black"/>
<path fill-rule="evenodd" clip-rule="evenodd" d="M591.815 1296.7C606.553 1296.7 618.501 1307.78 618.501 1321.45C618.501 1355.63 648.371 1383.34 685.218 1383.34C722.064 1383.34 751.934 1355.63 751.934 1321.45C751.934 1307.78 763.882 1296.7 778.621 1296.7C793.36 1296.7 805.308 1307.78 805.308 1321.45C805.308 1382.98 751.542 1432.85 685.218 1432.85C618.894 1432.85 565.128 1382.98 565.128 1321.45C565.128 1307.78 577.076 1296.7 591.815 1296.7Z" fill="black"/>
<path fill-rule="evenodd" clip-rule="evenodd" d="M593.384 745.602C608.99 745.602 621.641 756.696 621.641 770.38V1323.79C621.641 1337.47 608.99 1348.57 593.384 1348.57C577.779 1348.57 565.128 1337.47 565.128 1323.79V770.38C565.128 756.696 577.779 745.602 593.384 745.602Z" fill="black"/>
<path fill-rule="evenodd" clip-rule="evenodd" d="M780.581 609.45C794.236 609.45 805.305 620.558 805.305 634.261V1323.76C805.305 1337.46 794.236 1348.57 780.581 1348.57C766.926 1348.57 755.856 1337.46 755.856 1323.76V634.261C755.856 620.558 766.926 609.45 780.581 609.45Z" fill="black"/>
<path fill-rule="evenodd" clip-rule="evenodd" d="M842.604 764.747C853.679 755.74 870.598 756.694 880.393 766.878L932.812 821.377C942.607 831.561 941.57 847.12 930.494 856.127C919.419 865.135 902.5 864.181 892.705 853.996L840.287 799.497C830.491 789.313 831.529 773.755 842.604 764.747Z" fill="black"/>
<path fill-rule="evenodd" clip-rule="evenodd" d="M911.518 401.98C926.963 402.202 939.276 413.213 939.02 426.574C937.121 525.803 974.284 592.988 1024.07 640.277C1034.47 650.157 1033.64 665.461 1022.22 674.46C1010.8 683.458 993.113 682.743 982.711 672.863C923.271 616.402 880.956 537.255 883.09 425.773C883.346 412.411 896.073 401.759 911.518 401.98Z" fill="black"/>
<path fill-rule="evenodd" clip-rule="evenodd" d="M984.996 640.26C996.346 632.311 1012.59 634.288 1021.28 644.675L1068.41 701.044C1077.1 711.431 1074.94 726.295 1063.59 734.243C1052.24 742.192 1035.99 740.215 1027.31 729.828L980.171 673.459C971.485 663.072 973.645 648.208 984.996 640.26Z" fill="black"/>
</svg>
