<svg width="260" height="200" viewBox="0 0 260 200" fill="none" xmlns="http://www.w3.org/2000/svg">
<path d="M220 20V40H200V20H220Z" fill="#FFF561"/>
<path d="M160 80V100H140V80H160Z" fill="#FFF561"/>
<path d="M160 80V60H180V80H160Z" fill="#FFF561"/>
<path d="M140 80V60H120V80H140Z" fill="#FFF561"/>
<path fill-rule="evenodd" clip-rule="evenodd" d="M200 60V40H180V20H160V40H140V20H120V40H100V60H80V80H60V100H40V120H60V100H80V120H100V100H120V120H140V160H160V140H180V120H200V100H220V80H240V40H220V60H200ZM180 80H200V60H180V40H160V60H140V40H120V60H100V80H80V100H100V80H120V100H140V120H160V100H180V80Z" fill="#FFF561"/>
<path d="M100 80V100H80V80H100Z" fill="#F7F7F7"/>
<path fill-rule="evenodd" clip-rule="evenodd" d="M200 40V20H180V40H160V20H140V40H120V20H100V40H80V60H60V80H40V100H20V180H120V100H140V80H160V60H180V40H200ZM140 60V40H160V60H140ZM120 60H140V80H120V60ZM100 60H80V80H60V100H40V120H60V100H80V120H100V100H120V80H100V60ZM100 60V40H120V60H100Z" fill="#F7F7F7"/>
<path fill-rule="evenodd" clip-rule="evenodd" d="M100 20H80V40H60V60H40V80H20V100H0V180H20V200H140V180H160V160H180V140H200V120H220V100H240V80H260V20H240V0H100V20ZM100 20H220V40H200V60H180V80H160V100H140V120H120V180H20V100H40V80H60V60H80V40H100V20ZM240 80H220V100H200V120H180V140H160V160H140V120H160V100H180V80H200V60H220V40H240V80Z" fill="#121212"/>
</svg>
