<svg width="180" height="300" viewBox="0 0 180 300" fill="none" xmlns="http://www.w3.org/2000/svg">
<path d="M100 20V0H160V20H180V60H160V40H120V80H140V60H160V100H140V140H120V180H100V220H80V240H60V260H40V280H20V300H0V180H20V200H40V220H60V200H80V160H100V120H120V100H100V80H80V100H60V60H80V20H100Z" fill="#121212"/>
<path d="M60 100H40V140H20V180H40V140H60V100Z" fill="#121212"/>
<path d="M160 40V60H140V80H120V40H160Z" fill="#F7F7F7"/>
<path d="M120 100V120H80V100H120Z" fill="#F7F7F7"/>
<path fill-rule="evenodd" clip-rule="evenodd" d="M80 140V120H60V140H40V160H60V180H40V200H80V160H100V140H80ZM80 140H60V160H80V140Z" fill="#F7F7F7"/>
<path d="M100 100V80H80V100H60V120H80V140H60V160H40V180H20V200H40V220H60V200H40V180H60V160H80V140H100V120H80V100H100Z" fill="#FFF561"/>
</svg>
