<svg width="260" height="260" viewBox="0 0 260 260" fill="none" xmlns="http://www.w3.org/2000/svg">
<path d="M80 20V80H180V20H160V60H120V20H80Z" fill="#FFF561"/>
<path fill-rule="evenodd" clip-rule="evenodd" d="M180 160V140H160V160H140V140H120V160H100V140H80V160H100V180H80V200H100V220H80V240H100V220H120V240H140V220H160V240H180V220H160V200H180V180H160V160H180ZM140 180H160V200H140V180ZM120 180V160H140V180H120ZM120 200H140V220H120V200ZM120 200V180H100V200H120Z" fill="#FFF561"/>
<path d="M60 20H20V240H60V120H200V240H240V40H220V20H200V100H60V20Z" fill="#F7F7F7"/>
<path d="M120 140V160H100V140H120Z" fill="#F7F7F7"/>
<path d="M100 180V160H80V180H100Z" fill="#F7F7F7"/>
<path fill-rule="evenodd" clip-rule="evenodd" d="M120 180H100V200H80V220H100V240H120V220H140V240H160V220H180V200H160V180H180V160H160V140H140V160H120V180ZM140 180H120V200H100V220H120V200H140V220H160V200H140V180ZM140 180V160H160V180H140Z" fill="#F7F7F7"/>
<path fill-rule="evenodd" clip-rule="evenodd" d="M0 0H220V20H200V100H60V20H20V240H60V120H200V240H240V40H260V260H0V0ZM120 20H80V80H180V20H160V60H120V20ZM180 240V140H80V240H180Z" fill="#121212"/>
<path d="M240 40V20H220V40H240Z" fill="#121212"/>
</svg>
