<svg width="220" height="220" viewBox="0 0 220 220" fill="none" xmlns="http://www.w3.org/2000/svg">
<path d="M140 0V20H220V60H200V40H20V60H0V20H80V0H140Z" fill="#121212"/>
<path d="M40 200H20V60H200V200H180V80H40V200Z" fill="#121212"/>
<path d="M40 200V220H180V200H40Z" fill="#121212"/>
<path d="M80 180H60V100H80V180Z" fill="#121212"/>
<path d="M100 100H120V180H100V100Z" fill="#121212"/>
<path d="M160 180H140V100H160V180Z" fill="#121212"/>
<path d="M80 80V100H60V80H80Z" fill="#FFF561"/>
<path d="M60 100V120H40V100H60Z" fill="#FFF561"/>
<path d="M100 100V120H80V100H100Z" fill="#FFF561"/>
<path d="M120 100H100V80H120V100Z" fill="#FFF561"/>
<path d="M140 100V120H120V100H140Z" fill="#FFF561"/>
<path d="M160 100H140V80H160V100Z" fill="#FFF561"/>
<path d="M160 100V120H180V100H160Z" fill="#FFF561"/>
<path d="M60 160V140H40V160H60Z" fill="#FFF561"/>
<path d="M100 140V160H80V140H100Z" fill="#FFF561"/>
<path d="M140 160V140H120V160H140Z" fill="#FFF561"/>
<path d="M180 140V160H160V140H180Z" fill="#FFF561"/>
<path d="M60 200V180H40V200H60Z" fill="#FFF561"/>
<path d="M100 180V200H80V180H100Z" fill="#FFF561"/>
<path d="M140 200V180H120V200H140Z" fill="#FFF561"/>
<path d="M180 180V200H160V180H180Z" fill="#FFF561"/>
<path d="M20 60H200V40H20V60Z" fill="#F7F7F7"/>
<path d="M100 100V80H80V100H100Z" fill="#F7F7F7"/>
<path d="M60 80V100H40V80H60Z" fill="#F7F7F7"/>
<path d="M60 140V120H40V140H60Z" fill="#F7F7F7"/>
<path d="M100 120V140H80V120H100Z" fill="#F7F7F7"/>
<path d="M140 140V120H120V140H140Z" fill="#F7F7F7"/>
<path d="M180 120V140H160V120H180Z" fill="#F7F7F7"/>
<path d="M60 180V160H40V180H60Z" fill="#F7F7F7"/>
<path d="M80 180H60V200H80V180Z" fill="#F7F7F7"/>
<path d="M100 180H80V160H100V180Z" fill="#F7F7F7"/>
<path d="M120 180H100V200H120V180Z" fill="#F7F7F7"/>
<path d="M140 180H120V160H140V180Z" fill="#F7F7F7"/>
<path d="M160 180H140V200H160V180Z" fill="#F7F7F7"/>
<path d="M160 180H180V160H160V180Z" fill="#F7F7F7"/>
<path d="M140 80V100H120V80H140Z" fill="#F7F7F7"/>
<path d="M180 100V80H160V100H180Z" fill="#F7F7F7"/>
</svg>
