<svg width="3840" height="248" viewBox="0 0 3840 248" fill="none" xmlns="http://www.w3.org/2000/svg">
<path d="M3840 54.1647C3840 54.1647 3787.5 53.5561 3746.5 63.9021C3705.5 74.2482 3645.5 98.5919 3621 107.113C3596.5 115.633 3573 125.37 3520 107.113C3466.7 88.8548 3413 98.5923 3360 129.387C3306.7 160.669 3253 214.225 3200 209.721C3146.7 205.705 3093 142.411 3040 115.998C2986.7 88.8548 2933 98.5922 2880 120.502C2826.7 142.411 2773 178.926 2720 174.058C2666.7 169.189 2613 125.37 2560 115.998C2506.7 107.112 2453 133.891 2400 138.394C2346.7 142.411 2293 125.37 2240 102.609C2186.7 80.3344 2133 53.5563 2080 80.3344C2026.7 107.112 1973 187.447 1920 196.332C1866.7 205.704 1813 142.411 1760 138.394C1706.7 133.89 1653 187.447 1600 191.95C1546.7 195.967 1493 152.148 1440 142.776C1386.7 133.89 1333 160.669 1280 178.561C1226.7 195.967 1173 205.704 1120 214.225C1066.7 222.745 1013 232.482 960 200.836C906.7 169.189 853 98.592 800 71.4488C746.7 45.0359 693 62.0765 640 102.609C586.7 142.411 533 205.704 480 232.117C426.7 259.26 373 249.523 320 218.728C266.7 187.446 213 133.89 160 102.609C106.7 71.8139 53 62.0764 27 58.0597L1.68924e-05 54.7733L2.16808e-05 1.07983e-05L26.7 1.31325e-05C53.3 1.54579e-05 107 2.01525e-05 160 2.47859e-05C213.3 2.94456e-05 267 3.41402e-05 320 3.87736e-05C373.3 4.34332e-05 427 4.81278e-05 480 5.27612e-05C533.3 5.74208e-05 587 6.21155e-05 640 6.67489e-05C693.3 7.14085e-05 747 7.61031e-05 800 8.07365e-05C853.3 8.53961e-05 907 9.00907e-05 960 9.47241e-05C1013.3 9.93838e-05 1067 0.000104078 1120 0.000108712C1173.3 0.000113371 1227 0.000118066 1280 0.000122699C1333.3 0.000127359 1387 0.000132054 1440 0.000136687C1493.3 0.000141347 1547 0.000146041 1600 0.000150675C1653.3 0.000155334 1707 0.000160029 1760 0.000164662C1813.3 0.000169322 1867 0.000174017 1920 0.00017865C1973.3 0.00018331 2027 0.000188004 2080 0.000192638C2133.3 0.000197297 2187 0.000201992 2240 0.000206625C2293.3 0.000211285 2347 0.00021598 2400 0.000220613C2453.3 0.000225273 2507 0.000229967 2560 0.000234601C2613.3 0.00023926 2667 0.000243955 2720 0.000248588C2773.3 0.000253248 2827 0.000257942 2880 0.000262576C2933.3 0.000267236 2987 0.00027193 3040 0.000276564C3093.3 0.000281223 3147 0.000285918 3200 0.000290551C3253.3 0.000295211 3307 0.000299905 3360 0.000304539C3413.3 0.000309198 3467 0.000313893 3520 0.000318526C3573.3 0.000323186 3627 0.000327881 3680 0.000332514C3733.3 0.000337174 3787 0.000341868 3813 0.000344141L3840 0.000346502L3840 54.1647Z" fill="#FFD25D"/>
</svg>
