<svg width="1920" height="131" viewBox="0 0 1920 131" fill="none" xmlns="http://www.w3.org/2000/svg">
<path d="M6.10352e-05 77.832V0H1920V77.828L1901.33 84.9053C1894.49 87.4028 1885.05 88.9695 1873.96 90.8093C1854.8 93.988 1830.74 97.9818 1806.67 109C1769.33 126.66 1743.07 137.753 1706 123.665C1667.33 109.312 1618.8 85.1037 1581.33 60.168C1544 35.4968 1505.87 35.4968 1468 46.0796C1440.6 53.8467 1412.98 67.3143 1385.1 80.9128C1374.99 85.8425 1364.85 90.7893 1354.67 95.488C1317.33 112.884 1280 127.435 1242.67 120.159C1205.33 112.884 1167.07 85.1037 1129.33 56.6624C1092 28.2211 1054.13 0.441284 1016 10.8257C996.385 16.4903 976.732 32.6906 957.101 48.8735C939.369 63.4907 921.655 78.0936 904 84.9053C879.759 93.7377 858.832 83.1764 837.326 72.323C824.529 65.8646 811.527 59.3027 797.5 56.6624C777.283 52.9731 751.542 64.6074 726.155 76.0823C704.662 85.7969 683.422 95.3971 666 95.488C648.459 95.3948 632.405 79.082 616.468 62.8883C598.485 44.6155 580.651 26.4946 561 32C542.948 37.0335 526.159 54.9973 509.577 72.7407L509.577 72.7409C490.642 93.0022 471.974 112.976 452 113.082C431.897 112.975 416.733 97.5285 401.105 81.61C387.711 67.9662 373.976 53.9758 356.5 49C337.891 43.8239 314.719 52.7236 291.433 61.6669C268.003 70.6656 244.459 79.7083 225.333 74.5C210.752 70.2892 196.151 61.2992 181.553 52.3114C158.774 38.2869 136.004 24.2677 113.333 28.4196C75.274 35.3857 54.5 28 39 47C23.5 66 28.5 60.5 21.5 67C14.5 73.5 6.10352e-05 77.832 6.10352e-05 77.832Z" fill="#FFD25D"/>
</svg>
